<?xml version="1.0" encoding="utf-8"?>
<!-- Generator: Adobe Illustrator 18.0.0, SVG Export Plug-In . SVG Version: 6.00 Build 0)  -->
<!DOCTYPE svg PUBLIC "-//W3C//DTD SVG 1.1//EN" "http://www.w3.org/Graphics/SVG/1.1/DTD/svg11.dtd">
<svg version="1.1" id="Layer_1" xmlns="http://www.w3.org/2000/svg" xmlns:xlink="http://www.w3.org/1999/xlink" x="0px" y="0px"
	 viewBox="0 0 300 300" enable-background="new 0 0 300 300" xml:space="preserve">
<g>
	<g>
		<rect x="56.2" y="37" width="183.7" height="26.7"/>
		<path fill="#FFFFFF" d="M233.7,43.2v14.3H62.5V43.2H233.7 M246.2,30.8h-12.5H62.5H50v12.5v14.3V70h12.5h171.2h12.5V57.5V43.2V30.8
			L246.2,30.8z"/>
	</g>
	<g>
		<rect x="31.6" y="57.9" width="26.7" height="183.7"/>
		<path fill="#FFFFFF" d="M52.2,64.2v171.2H37.9V64.2H52.2 M64.6,51.7H52.2H37.9H25.4v12.5v171.2v12.5h12.5h14.3h12.5v-12.5V64.2
			L64.6,51.7L64.6,51.7z"/>
	</g>
	<g>
		<path d="M258.3,183.8c-2.6,0-5-1.7-5.9-4.2L238.1,138c-0.2-0.7-0.3-1.3-0.3-2V67.8c0-3.4,2.8-6.2,6.2-6.2h14.3
			c3.4,0,6.2,2.8,6.2,6.2v109.8c0,3-2.2,5.7-5.2,6.2C259,183.8,258.6,183.8,258.3,183.8z"/>
		<path fill="#FFFFFF" d="M258.3,67.8v109.8L244,136V67.8H258.3 M258.3,55.3H244c-6.9,0-12.5,5.6-12.5,12.5V136
			c0,1.4,0.2,2.7,0.7,4.1l14.3,41.6c1.8,5.1,6.5,8.4,11.8,8.4c0.7,0,1.4-0.1,2.1-0.2c6-1,10.4-6.2,10.4-12.3V67.8
			C270.7,60.9,265.2,55.3,258.3,55.3L258.3,55.3z"/>
	</g>
	<g>
		<rect x="57" y="239.9" width="110.8" height="26.7"/>
		<path fill="#FFFFFF" d="M161.6,246.2v14.3H63.3v-14.3H161.6 M174.1,233.7h-12.5H63.3H50.8v12.5v14.3V273h12.5h98.3h12.5v-12.5
			v-14.3V233.7L174.1,233.7z"/>
	</g>
	<g>
		<path d="M13.4,78.8V15.6h63.2v63.2H13.4z M54.6,56.8V37.6H35.4v19.2H54.6z"/>
		<path fill="#FFFFFF" d="M70.4,21.8v50.7H19.7V21.8H70.4 M29.2,63.1h31.7V31.4H29.2V63.1 M82.9,9.4H70.4H19.7H7.2v12.5v50.7V85
			h12.5h50.7h12.5V72.6V21.8V9.4L82.9,9.4z M41.6,43.8h6.8v6.8h-6.8V43.8L41.6,43.8z"/>
	</g>
	<g>
		<path d="M13.4,284.9v-63.2h63.2v63.2H13.4z M54.6,262.9v-19.2H35.4v19.2H54.6z"/>
		<path fill="#FFFFFF" d="M70.4,228v50.7H19.7V228H70.4 M29.2,269.2h31.7v-31.7H29.2V269.2 M82.9,215.5H70.4H19.7H7.2V228v50.7v12.5
			h12.5h50.7h12.5v-12.5V228V215.5L82.9,215.5z M41.6,249.9h6.8v6.8h-6.8V249.9L41.6,249.9z"/>
	</g>
	<g>
		<path d="M222.7,77.2V14h63.2v63.2H222.7z M263.9,55.2V36h-19.2v19.2H263.9z"/>
		<path fill="#FFFFFF" d="M279.7,20.3V71l0,0H229V20.3H279.7 M238.4,61.5h31.7V29.8h-31.7L238.4,61.5 M292.1,7.8h-12.5h-50.7h-12.5
			v12.5V71v12.5h12.5h50.7h12.5V71V20.3V7.8L292.1,7.8z M250.9,42.2h6.8V49h-6.8L250.9,42.2L250.9,42.2z"/>
	</g>
</g>
<g>
	<g>
		<linearGradient id="SVGID_1_" gradientUnits="userSpaceOnUse" x1="261.2757" y1="108.6749" x2="173.3473" y2="260.9715">
			<stop  offset="0" style="stop-color:#FFFFFF"/>
			<stop  offset="0.2204" style="stop-color:#989697"/>
			<stop  offset="1" style="stop-color:#000000"/>
		</linearGradient>
		<path fill="url(#SVGID_1_)" d="M182.4,265.3c-2,0-3.8-1-4.9-2.7c-12.8-20.7-21.1-46.7-21.4-47.8c-0.4-1.2-0.3-2.5,0.1-3.7
			L203,85.5c0.8-2.3,3-3.7,5.4-3.7c0.3,0,0.7,0,1,0.1c0.5,0.1,1,0.2,1.4,0.5c0.4-0.2,0.9-0.4,1.4-0.5c0.3-0.1,0.7-0.1,1-0.1
			c2.4,0,4.5,1.5,5.4,3.7l46.8,125.6c0.4,1.2,0.5,2.5,0.1,3.7c-0.3,1.1-8.6,27.1-21.4,47.8c-1,1.7-2.9,2.7-4.9,2.7L182.4,265.3
			L182.4,265.3z M210.5,218c-0.1,0-0.5,0.2-0.5,0.7c0,0.4,0.4,0.8,0.8,0.8c0.4,0,0.8-0.4,0.8-0.8c0-0.5-0.4-0.7-0.5-0.7
			s-0.2-0.1-0.3-0.1S210.6,218,210.5,218z"/>
		<path fill="#FFFFFF" d="M213.3,87.5l46.8,125.6c0,0-8.2,26.2-20.8,46.5h-56.8c-12.6-20.4-20.8-46.5-20.8-46.5l46.8-125.6v125.2
			c-2.4,1-4.1,3.3-4.1,6c0,3.6,2.9,6.5,6.5,6.5s6.5-2.9,6.5-6.5c0-2.7-1.7-5-4.1-6L213.3,87.5 M213.3,76.1c-0.7,0-1.4,0.1-2,0.2
			c-0.1,0-0.3,0.1-0.4,0.1c-0.1,0-0.3-0.1-0.4-0.1c-0.7-0.1-1.4-0.2-2-0.2c-4.7,0-9,2.9-10.7,7.4L151,209.1c-0.9,2.4-1,5-0.2,7.4
			c0.4,1.1,8.8,27.8,22,49.1c2.1,3.4,5.8,5.4,9.7,5.4h56.8c4,0,7.6-2,9.7-5.4c13.2-21.3,21.7-48,22-49.1c0.8-2.4,0.7-5-0.2-7.4
			L224,83.5C222.3,79,218,76.1,213.3,76.1L213.3,76.1z"/>
	</g>
	<g>
		<path d="M182.6,296.3c-9.7,0-17.7-8.6-17.7-19.3s7.9-19.3,17.7-19.3h56.5c9.7,0,17.7,8.6,17.7,19.3s-7.9,19.3-17.7,19.3H182.6z"/>
		<path fill="#FFFFFF" d="M239.1,263.5c6.6,0,12,6.1,12,13.5c0,7.5-5.4,13.5-12,13.5h-56.5c-6.6,0-12-6.1-12-13.5
			c0-7.5,5.4-13.5,12-13.5H239.1 M239.1,252h-56.5c-12.9,0-23.4,11.2-23.4,25s10.5,25,23.4,25h56.5c12.9,0,23.4-11.2,23.4-25
			S252,252,239.1,252L239.1,252z"/>
	</g>
</g>
</svg>
